<svg xmlns="http://www.w3.org/2000/svg" viewBox="0 0 128 128" role="img" aria-labelledby="title">
  <title id="title">Google Chrome</title>
  <circle fill="#fff" cx="64" cy="64" r="61"/>
  <path fill="#ea4335" d="M64 3a61 61 0 0 1 54.3 33H63.5a28 28 0 0 0-26 36.4L12.7 29.5A61 61 0 0 1 64 3Z"/>
  <path fill="#34a853" d="M12.7 29.5a61 61 0 0 0 46.2 95.3l26-44.3A28 28 0 0 1 37.5 72.4Z"/>
  <path fill="#fbbc05" d="M58.9 124.8A61 61 0 0 0 118.3 36H63.5a28 28 0 0 1 21.4 44.5Z"/>
  <circle fill="#4285f4" cx="64" cy="64" r="22.7"/>
  <circle fill="none" stroke="#fff" stroke-opacity=".55" stroke-width="3" cx="64" cy="64" r="22.7"/>
</svg>
